{"title":"drinking.with.the.girls.(2009).(BBC)-WaRlOrD","uid":5053932,"size":733970432,"categoryP":"video","categoryS":"tv_shows","magnet":"?xt=urn:btih:c9f4f68aaaf10697b100ee77a495f192be163204&amp;dn=drinking.with.the.girls.%282009%29.%28BBC%29-WaRlOrD&amp;tr=udp%3A%2F%2Ftracker.openbittorrent.com%3A80&amp;tr=udp%3A%2F%2Fopen.demonii.com%3A1337&amp;tr=udp%3A%2F%2Ftracker.coppersurfer.tk%3A6969&amp;tr=udp%3A%2F%2Fexodus.desync.com%3A6969","seeders":0,"leechers":1,"uploader":"bitpirate","files":1,"time":1250305994,"description":" &lt;a href=&quot;http://www.bbc.co.uk/programmes/b00jz171&quot; rel=&quot;nofollow&quot; target=&quot;_NEW&quot;&gt;http://www.bbc.co.uk/programmes/b00jz171&lt;/a&gt;\n\nDocumentary in which Cherry Healey explores women's attitudes to alcohol. Cherry drinks with women across the country and tries to find out what girls drink, where they drink and how their tastes change throughout their lives.\n\nFrom teenagers drinking in their bedrooms to grannies on a boozy trip, she hears people's embarrassing drunken secrets and sees how some women want to grow old disgracefully, as well as looking at why drunk women get such bad press.\n\nFormat                           : AVI\nFormat/Info                      : Audio Video Interleave\nFile size                        : 700 MiB\nDuration                         : 56mn 59s\nOverall bit rate                 : 1 717 Kbps\nWriting application              : VirtualDubMod 1.5.10.2 (build 2540/release)\nWriting library                  : VirtualDubMod build 2540/release\n\nVideo\nID                               : 0\nFormat                           : MPEG-4 Visual\nFormat profile                   : Advanced Simple@L5\nFormat settings, BVOP            : Yes\nFormat settings, QPel            : No\nFormat settings, GMC             : No warppoints\nFormat settings, Matrix          : Default (H.263)\nMuxing mode                      : Packed bitstream\nCodec ID                         : XVID\nCodec ID/Hint                    : XviD\nDuration                         : 56mn 59s\nBit rate                         : 1 603 Kbps\nWidth                            : 640 pixels\nHeight                           : 352 pixels\nDisplay aspect ratio             : 16/9\nFrame rate                       : 25.000 fps\nResolution                       : 24 bits\nColorimetry                      : 4:2:0\nScan type                        : Progressive\nBits/(Pixel*Frame)               : 0.285\nStream size                      : 653 MiB (93%)\nWriting library                  : XviD 1.2.1 (UTC 2008-12-04)\n\nAudio\nID                               : 1\nFormat                           : MPEG Audio\nFormat version                   : Version 1\nFormat profile                   : Layer 3\nCodec ID                         : 55\nCodec ID/Hint                    : MP3\nDuration                         : 56mn 59s\nBit rate mode                    : Variable\nBit rate                         : 101 Kbps\nMinimum bit rate                 : 32.0 Kbps\nChannel(s)                       : 2 channels\nSampling rate                    : 48.0 KHz\nResolution                       : 16 bits\nStream size                      : 41.3 MiB (6%)\nAlignment                        : Aligned on interleaves\nInterleave, duration             : 24 ms (0.60 video frame)\nInterleave, preload duration     : 584 ms\nWriting library                  : LAME3.97b\nEncoding settings                : -m j -V 5 -q 3 -lowpass 16 --vbr-new -b 32","torrent":{"xt":"urn:btih:c9f4f68aaaf10697b100ee77a495f192be163204","amp;dn":"drinking.with.the.girls.%282009%29.%28BBC%29-WaRlOrD","amp;tr":["udp%3A%2F%2Ftracker.openbittorrent.com%3A80","udp%3A%2F%2Fopen.demonii.com%3A1337","udp%3A%2F%2Ftracker.coppersurfer.tk%3A6969","udp%3A%2F%2Fexodus.desync.com%3A6969"],"infoHash":"c9f4f68aaaf10697b100ee77a495f192be163204","infoHashBuffer":{"type":"Buffer","data":[201,244,246,138,170,241,6,151,177,0,238,119,164,149,241,146,190,22,50,4]},"announce":[],"urlList":[]}}